<svg width="1157" height="1156" viewBox="0 0 1157 1156" fill="none" xmlns="http://www.w3.org/2000/svg">
<path d="M355.458 313.323H275.81C245.197 313.323 229.436 318.573 229.436 343.948V372.822C229.436 398.208 245.197 403.447 275.81 403.447H294.197C305.572 403.447 310.81 409.583 310.81 427.083V805.17C310.81 835.807 316.071 851.556 341.458 851.556H371.196C396.594 851.556 401.855 835.807 401.855 805.17V343.948C401.855 318.573 386.082 313.323 355.458 313.323Z" fill="white" fill-opacity="0.1"/>
<path d="M1080.86 512.859C1080.86 525.995 1074.73 532.983 1062.48 532.983H1003.85V491.859C1003.85 461.234 999.468 445.485 973.218 445.485H946.945C920.707 445.485 916.321 461.234 916.321 491.859V532.983H875.196C844.571 532.983 828.81 537.37 828.81 563.619V591.631C828.81 617.88 844.571 622.267 875.196 622.267H916.321V663.391C916.321 694.028 920.707 709.777 946.945 709.777H973.218C999.468 709.777 1003.85 694.028 1003.85 663.391V622.267H1062.48C1073.86 622.267 1079.99 628.392 1080.86 639.767V772.788C1080.86 805.174 1071.23 829.674 1048.48 851.56L853.31 1046.72C830.549 1069.48 805.174 1079.99 773.686 1079.99H383.325C351.826 1079.99 326.451 1069.48 303.69 1046.72L108.533 851.56C85.7835 828.81 75.2487 805.174 76.1467 772.788V386.837C76.1467 354.451 86.6585 326.44 110.283 302.815L308.94 101.521C329.076 81.4083 354.451 75.2603 383.325 75.2603H773.686C802.549 75.2603 827.924 81.4083 848.06 101.521L1046.73 302.815C1069.48 326.44 1080.86 354.451 1080.86 386.837V512.859ZM901.434 50.7609C867.31 17.5112 824.435 0.00012207 772.788 0.00012207H384.201C332.565 0.00012207 288.804 17.5112 255.566 50.7609L49.8742 255.566C17.5111 287.941 0 330.826 0 378.087V772.788C0 827.049 18.3859 869.071 55.1354 904.957L250.316 1100.11C288.804 1138.63 331.69 1156.13 386.837 1155.25H770.174C823.56 1155.25 867.31 1139.49 906.696 1100.11L1101.86 904.957C1137.75 869.071 1157 826.174 1157 772.788V378.087C1157 330.826 1139.5 287.941 1107.11 255.566L901.434 50.7609Z" fill="white" fill-opacity="0.1"/>
<path d="M632.788 775.412C576.789 775.412 556.653 753.537 556.653 698.39C556.653 643.254 576.789 617.879 632.788 617.879C688.811 617.879 708.947 643.254 708.947 698.39C708.947 753.537 688.811 775.412 632.788 775.412ZM632.788 384.2C680.936 384.2 700.197 401.711 700.197 460.358C700.197 517.232 680.936 536.505 632.788 536.505C584.676 536.505 565.415 517.232 565.415 460.358C565.415 401.711 584.676 384.2 632.788 384.2ZM736.06 572.38C785.071 536.505 785.946 499.744 785.946 469.983V440.233C780.696 341.325 747.447 303.689 632.788 303.689C518.153 303.689 484.904 341.325 479.643 440.233V469.983C479.643 499.744 480.517 536.505 529.528 572.38C470.893 595.129 466.518 645.027 466.518 710.651C466.518 807.798 500.642 855.934 632.788 858.57C764.946 855.934 799.094 807.798 799.094 710.651C799.094 645.027 794.719 595.129 736.06 572.38Z" fill="white" fill-opacity="0.1"/>
</svg>
