<svg width="439" height="438" viewBox="0 0 439 438" fill="none" xmlns="http://www.w3.org/2000/svg">
<path d="M134.764 118.79H104.568C92.9617 118.79 86.9862 120.78 86.9862 130.401V141.348C86.9862 150.972 92.9617 152.958 104.568 152.958H111.539C115.851 152.958 117.837 155.285 117.837 161.92V305.263C117.837 316.878 119.832 322.85 129.457 322.85H140.731C150.36 322.85 152.355 316.878 152.355 305.263V130.401C152.355 120.78 146.375 118.79 134.764 118.79Z" fill="white" fill-opacity="0.1"/>
<path d="M409.786 194.439C409.786 199.42 407.46 202.069 402.816 202.069H380.59V186.478C380.59 174.867 378.927 168.896 368.975 168.896H359.014C349.066 168.896 347.403 174.867 347.403 186.478V202.069H331.812C320.201 202.069 314.225 203.732 314.225 213.684V224.304C314.225 234.256 320.201 235.919 331.812 235.919H347.403V251.51C347.403 263.126 349.066 269.097 359.014 269.097H368.975C378.927 269.097 380.59 263.126 380.59 251.51V235.919H402.816C407.132 235.919 409.455 238.241 409.786 242.554V292.986C409.786 305.264 406.133 314.553 397.508 322.851L323.514 396.84C314.885 405.47 305.264 409.455 293.326 409.455H145.33C133.387 409.455 123.767 405.47 115.138 396.84L41.148 322.851C32.523 314.225 28.5289 305.264 28.8694 292.986V146.661C28.8694 134.382 32.8547 123.763 41.8115 114.806L117.128 38.4896C124.762 30.8641 134.382 28.5333 145.33 28.5333H293.326C304.269 28.5333 313.889 30.8641 321.524 38.4896L396.845 114.806C405.47 123.763 409.786 134.382 409.786 146.661V194.439ZM341.759 19.2448C328.822 6.63895 312.567 0 292.986 0H145.661C126.085 0 109.494 6.63895 96.8923 19.2448L18.9087 96.8923C6.63895 109.166 0 125.426 0 143.344V292.986C0 313.558 6.97061 329.49 20.9034 343.095L94.9018 417.085C109.494 431.685 125.753 438.32 146.661 437.988H291.995C312.235 437.988 328.822 432.013 343.754 417.085L417.748 343.095C431.354 329.49 438.652 313.226 438.652 292.986V143.344C438.652 125.426 432.017 109.166 419.738 96.8923L341.759 19.2448Z" fill="white" fill-opacity="0.1"/>
<path d="M239.908 293.981C218.677 293.981 211.042 285.687 211.042 264.779C211.042 243.876 218.677 234.255 239.908 234.255C261.147 234.255 268.782 243.876 268.782 264.779C268.782 285.687 261.147 293.981 239.908 293.981ZM239.908 145.661C258.162 145.661 265.464 152.3 265.464 174.535C265.464 196.098 258.162 203.404 239.908 203.404C221.667 203.404 214.364 196.098 214.364 174.535C214.364 152.3 221.667 145.661 239.908 145.661ZM279.061 217.005C297.642 203.404 297.974 189.467 297.974 178.184V166.905C295.984 129.406 283.378 115.137 239.908 115.137C196.446 115.137 183.84 129.406 181.846 166.905V178.184C181.846 189.467 182.177 203.404 200.759 217.005C178.528 225.63 176.87 244.548 176.87 269.428C176.87 306.259 189.807 324.509 239.908 325.508C290.012 324.509 302.959 306.259 302.959 269.428C302.959 244.548 301.3 225.63 279.061 217.005Z" fill="white" fill-opacity="0.1"/>
</svg>
