<svg width="247" height="319" viewBox="0 0 247 319" fill="none" xmlns="http://www.w3.org/2000/svg">
<path d="M224.367 310.845L245.772 279.204C246.758 277.005 247.026 271.402 243.5 269.276C241.705 268.103 237.726 267.205 234.513 270.089C234.207 270.416 233.44 271.395 232.757 272.669L225.487 286.84C225.953 279.793 225.046 264.337 221.174 253.424C218.623 246.252 209.79 232.069 191.98 224.784C185.845 222.385 172.705 219.762 157.779 223.167C153.183 218.892 146.773 215.644 138.398 215.395C133.367 215.168 120.122 218.096 107.418 231.716L108.709 226.359C112.32 211.061 116.614 192.366 110.305 173.101C103.886 153.534 87.2504 135.254 53.4892 118.282C31.0943 107.038 18.7387 90.6627 15.8656 72.6953C13.0418 54.9995 19.0587 33.7441 37.3637 11.55C38.0093 10.7698 37.9659 9.61509 37.2318 8.90206L29.2621 1.27716C28.4587 0.518391 27.1876 0.587343 26.48 1.4463C6.30028 25.9024 -2.16936 51.6198 1.62188 75.2347C5.50763 99.46 21.9324 119.384 47.3348 132.152C79.3438 148.248 92.9597 178.16 92.9597 178.16C96.7046 187.066 97.8333 201.193 89.9642 236.623C88.452 241.486 90.3034 250.649 100.857 251.655C102.613 251.757 107.343 250.978 112.28 247.098C117.365 241.76 128.619 232.367 135.135 231.071C136.154 230.976 137.358 230.903 138.669 230.94C126.577 238.136 109.272 252.309 108.799 268.241C108.589 275.397 110.098 284.972 123.315 290.554C128.088 292.345 140.483 292.782 151.951 280.113C155.688 276.089 161.41 267.573 164.496 256.504C165.931 251.321 166.854 245.512 166.675 239.395C166.587 238.609 166.42 237.762 166.2 236.859C171.907 235.988 178.1 235.994 183.919 237.847C188.801 238.782 200.197 243.892 206.67 256.929C208.717 261.925 212.489 274.526 211.096 284.918L210.984 285.99L201.817 268.847C200.7 267.433 197.511 264.962 193.746 266.407C191.562 267.389 187.656 270.673 189.406 276.012L201.585 300.233L201.603 300.265L208.464 313.935C209.525 315.661 212.612 318.812 216.643 318.051C216.726 318.045 216.818 318.057 216.934 318.033C216.991 318.021 217.049 318.009 217.09 318.007C218.324 317.724 220.932 316.025 224.367 310.845ZM152.243 243.394C152.808 247.315 151.734 257.737 142.911 268.065C139.753 271.454 132.604 277.126 129.049 276.068C127.666 275.644 124.713 274.625 124.278 270.522C124.298 268.88 124.547 265.069 128.877 259.094C131.297 255.916 138.485 248.227 147.931 242.924C148.939 242.363 150.201 241.72 151.664 241.09C151.865 241.81 152.069 242.572 152.243 243.394Z" fill="url(#paint0_linear_709_458)"/>
<defs>
<linearGradient id="paint0_linear_709_458" x1="233" y1="-14" x2="84.0097" y2="295.246" gradientUnits="userSpaceOnUse">
<stop offset="0.0476406" stop-color="#FAE159"/>
<stop offset="0.759259" stop-color="#FAE159"/>
<stop offset="0.909983" stop-color="#FCC118"/>
</linearGradient>
</defs>
</svg>
