<svg width="640" height="210" viewBox="0 0 640 210" fill="none" xmlns="http://www.w3.org/2000/svg">
<g filter="url(#filter0_i_610_2794)">
<path d="M634.662 65.9278L605.816 6.58081C603.377 3.20517 595.227 -2.03511 589.002 1.40483C585.697 3.07657 580.916 8.25256 582.456 15.5504C582.681 16.2898 583.483 18.283 584.798 20.4049L599.719 43.52C589.579 36.7365 565.675 24.745 546.005 21.1121C533.074 18.7331 504.228 19.6976 477.948 40.0479C469.06 47.1528 453.787 64.5454 445.99 89.8145C435.626 92.9972 425.229 99.7807 417.625 112.094C412.94 119.424 405.881 141.767 415.282 172.534L408.384 165.975C388.618 147.361 364.36 124.793 330.091 117.591C295.277 110.293 253.564 119.392 199.015 155.238C162.853 179.028 127.686 183.368 98.3262 172.148C69.4157 161.089 42.8155 133.73 25.4243 87.1783C24.8147 85.5387 23.0499 84.6063 21.3493 85.0886L3.05962 90.4253C1.23065 90.9718 0.235954 92.9329 0.909783 94.7333C20.0658 146.043 51.2223 180.925 89.8231 195.649C129.419 210.759 173.41 203.397 214.449 176.424C266.174 142.442 322.679 147.908 322.679 147.908C339.236 149.997 361.344 160.51 407.549 202.882C413.518 209.344 428.823 214.488 439.444 199.571C441.113 197.031 444.032 189.283 442.492 178.546C438.899 166.329 434.567 141.381 438.257 130.515C438.995 128.908 439.925 127.043 441.113 125.114C441.433 149.419 447.69 187.547 471.114 202.014C481.638 208.508 497.265 214.52 517.031 199.571C523.833 193.977 535.192 175.813 526.143 147.715C523.352 138.649 515.555 122.735 501.661 108.557C495.147 101.935 487.254 95.537 477.948 90.5218C476.697 89.9752 475.285 89.493 473.745 89.0429C477.371 79.7518 482.729 70.493 490.527 63.388C496.142 56.8939 513.629 44.2594 538.721 45.8347C547.963 47.0885 570.071 52.3288 584.413 63.388L585.922 64.4811L552.358 63.388C549.278 63.8381 542.829 66.4743 541.738 73.3542C541.32 77.4693 542.861 86.1495 552.358 88.1427L599.109 90.8432H599.173L625.549 92.3864C629.047 92.2899 636.427 90.3931 638.769 83.7062C638.833 83.5776 638.929 83.449 638.994 83.2561C639.026 83.1596 639.058 83.0632 639.09 82.9989C639.732 80.9092 639.443 75.5403 634.662 65.9278ZM471.467 115.566C477.82 118.106 492.484 128.715 500.313 150.833C502.656 158.485 504.966 174.077 500.313 178.481C498.484 180.185 494.409 183.722 487.895 180.828C485.457 179.381 479.97 175.716 474.772 164.079C472.109 157.713 466.814 140.32 467.039 121.61C467.071 119.617 467.199 117.173 467.52 114.441C468.772 114.762 470.087 115.116 471.467 115.566Z" fill="url(#paint0_linear_610_2794)"/>
</g>
<defs>
<filter id="filter0_i_610_2794" x="0.698242" y="0.280518" width="638.644" height="212.978" filterUnits="userSpaceOnUse" color-interpolation-filters="sRGB">
<feFlood flood-opacity="0" result="BackgroundImageFix"/>
<feBlend mode="normal" in="SourceGraphic" in2="BackgroundImageFix" result="shape"/>
<feColorMatrix in="SourceAlpha" type="matrix" values="0 0 0 0 0 0 0 0 0 0 0 0 0 0 0 0 0 0 127 0" result="hardAlpha"/>
<feOffset dy="4"/>
<feGaussianBlur stdDeviation="2"/>
<feComposite in2="hardAlpha" operator="arithmetic" k2="-1" k3="1"/>
<feColorMatrix type="matrix" values="0 0 0 0 0 0 0 0 0 0 0 0 0 0 0 0 0 0 0.25 0"/>
<feBlend mode="normal" in2="shape" result="effect1_innerShadow_610_2794"/>
</filter>
<linearGradient id="paint0_linear_610_2794" x1="156.17" y1="-227.548" x2="490.102" y2="262.421" gradientUnits="userSpaceOnUse">
<stop offset="0.0476406" stop-color="#FAE159"/>
<stop offset="0.759259" stop-color="#FAE159"/>
<stop offset="0.909983" stop-color="#FCC118"/>
</linearGradient>
</defs>
</svg>
