<svg width="326" height="324" viewBox="0 0 326 324" fill="none" xmlns="http://www.w3.org/2000/svg">
<mask id="mask0_2399_812" style="mask-type:alpha" maskUnits="userSpaceOnUse" x="25" y="29" width="270" height="240">
<path fill-rule="evenodd" clip-rule="evenodd" d="M142.622 141.729C138.407 140.191 134.065 139.132 129.67 138.639C132.366 125.111 138.138 112.797 147.516 103.591C165.422 86.0125 183.213 82.0398 201.941 84.6904C213.361 86.3068 225.276 90.4052 237.92 96.0704L206.62 99.2196C199.503 99.9356 194.501 106.311 195.447 113.459C196.394 120.608 202.93 125.822 210.048 125.106L282.995 117.766C287.279 117.335 291 114.794 292.923 110.986C295.229 106.42 294.631 101.053 292.498 97.2254L249.87 36.4798C246.327 30.1204 238.392 27.6742 232.148 31.0161C225.903 34.358 223.714 42.2225 227.258 48.582L248.731 72.7512C234.25 66.2189 219.488 61.0172 204.762 58.9331C178.371 55.1979 152.651 61.5191 129.004 84.7334C112.723 100.715 104.77 121.881 102.549 143.534C99.5123 145.093 96.5256 147.023 93.6153 149.358C81.389 159.165 75.6191 171.055 74.3509 183.588C73.1436 195.519 76.1162 207.085 79.3458 216.532C80.9206 221.139 82.6781 225.57 84.2168 229.449L84.3946 229.897C84.7569 230.811 85.1034 231.686 85.4334 232.527C80.606 228.206 74.1402 223.067 65.9285 219.831C56.7834 216.227 46.2466 215.273 34.3833 218.814C27.567 220.849 23.8695 228.084 26.1249 234.974C28.3802 241.864 35.7343 245.8 42.5506 243.765C48.854 241.883 53.3997 242.544 57.0846 243.996C61.1604 245.603 64.9678 248.488 69.208 252.351C70.2481 253.298 71.2652 254.257 72.3273 255.262L72.603 255.522C73.5552 256.423 74.5682 257.382 75.5603 258.292C77.6471 260.206 80.289 262.517 83.2207 264.335C86.1676 266.162 90.5324 268.205 95.8439 268.031C101.48 267.845 105.982 265.256 109.314 261.985C114.064 257.322 115.458 251.45 115.461 246.427C115.463 241.726 114.276 237.064 113.041 233.179C111.774 229.19 110.088 224.936 108.521 220.985L108.423 220.739C106.828 216.718 105.281 212.815 103.919 208.832C101.098 200.58 99.5812 193.346 100.22 187.034C100.544 183.831 101.445 180.601 103.42 177.382C104.444 184.304 105.949 191.008 107.84 197.324C113.2 215.226 122.158 231.901 134.095 242.886C146.485 254.288 163.254 260.222 180.614 252.254C197.145 244.667 201.278 228.393 199.53 213.777C197.817 199.449 190.548 184.187 180.846 171.525C171.127 158.842 157.822 147.276 142.622 141.729ZM169.149 228.545C172.277 227.109 174.679 224.103 173.715 216.041C172.717 207.691 168.027 196.879 160.402 186.929C152.794 177 143.404 169.417 134.418 166.138C132.281 165.358 130.164 164.811 128.066 164.536C128.614 173.356 130.209 182.194 132.728 190.604C137.218 205.6 144.158 217.375 151.357 224C158.102 230.208 163.707 231.043 169.149 228.545ZM96.586 242.454C96.586 242.454 96.5699 242.444 96.5391 242.43C96.5708 242.447 96.586 242.454 96.586 242.454Z" fill="url(#paint0_linear_2399_812)"/>
</mask>
<g mask="url(#mask0_2399_812)">
<path fill-rule="evenodd" clip-rule="evenodd" d="M142.622 141.729C138.407 140.191 134.065 139.132 129.67 138.639C132.366 125.111 138.138 112.797 147.516 103.591C165.422 86.0125 183.213 82.0398 201.941 84.6904C213.361 86.3068 225.276 90.4052 237.92 96.0704L206.62 99.2196C199.503 99.9356 194.501 106.311 195.447 113.459C196.394 120.608 202.93 125.822 210.048 125.106L282.995 117.766C287.279 117.335 291 114.794 292.923 110.986C295.229 106.42 294.631 101.053 292.498 97.2254L249.87 36.4798C246.327 30.1204 238.392 27.6742 232.148 31.0161C225.903 34.358 223.714 42.2225 227.258 48.582L248.731 72.7512C234.25 66.2189 219.488 61.0172 204.762 58.9331C178.371 55.1979 152.651 61.5191 129.004 84.7334C112.723 100.715 104.77 121.881 102.549 143.534C99.5123 145.093 96.5256 147.023 93.6153 149.358C81.389 159.165 75.6191 171.055 74.3509 183.588C73.1436 195.519 76.1162 207.085 79.3458 216.532C80.9206 221.139 82.6781 225.57 84.2168 229.449L84.3946 229.897C84.7569 230.811 85.1034 231.686 85.4334 232.527C80.606 228.206 74.1402 223.067 65.9285 219.831C56.7834 216.227 46.2466 215.273 34.3833 218.814C27.567 220.849 23.8695 228.084 26.1249 234.974C28.3802 241.864 35.7343 245.8 42.5506 243.765C48.854 241.883 53.3997 242.544 57.0846 243.996C61.1604 245.603 64.9678 248.488 69.208 252.351C70.2481 253.298 71.2652 254.257 72.3273 255.262L72.603 255.522C73.5552 256.423 74.5682 257.382 75.5603 258.292C77.6471 260.206 80.289 262.517 83.2207 264.335C86.1676 266.162 90.5324 268.205 95.8439 268.031C101.48 267.845 105.982 265.256 109.314 261.985C114.064 257.322 115.458 251.45 115.461 246.427C115.463 241.726 114.276 237.064 113.041 233.179C111.774 229.19 110.088 224.936 108.521 220.985L108.423 220.739C106.828 216.718 105.281 212.815 103.919 208.832C101.098 200.58 99.5812 193.346 100.22 187.034C100.544 183.831 101.445 180.601 103.42 177.382C104.444 184.304 105.949 191.008 107.84 197.324C113.2 215.226 122.158 231.901 134.095 242.886C146.485 254.288 163.254 260.222 180.614 252.254C197.145 244.667 201.278 228.393 199.53 213.777C197.817 199.449 190.548 184.187 180.846 171.525C171.127 158.842 157.822 147.276 142.622 141.729ZM169.149 228.545C172.277 227.109 174.679 224.103 173.715 216.041C172.717 207.691 168.027 196.879 160.402 186.929C152.794 177 143.404 169.417 134.418 166.138C132.281 165.358 130.164 164.811 128.066 164.536C128.614 173.356 130.209 182.194 132.728 190.604C137.218 205.6 144.158 217.375 151.357 224C158.102 230.208 163.707 231.043 169.149 228.545ZM96.586 242.454C96.586 242.454 96.5699 242.444 96.5391 242.43C96.5708 242.447 96.586 242.454 96.586 242.454Z" fill="url(#paint1_linear_2399_812)"/>
<path fill-rule="evenodd" clip-rule="evenodd" d="M103.455 177.614C103.441 177.509 103.428 177.405 103.415 177.302C103.288 176.285 103.165 175.323 103.048 174.405C101.717 163.976 101.12 159.29 102.512 143.554C99.4878 145.109 96.5137 147.033 93.6153 149.358C81.389 159.165 75.6191 171.056 74.3509 183.588C73.1436 195.519 76.1161 207.085 79.3458 216.533C79.5117 217.018 79.6798 217.502 79.8494 217.983L106.255 215.218C105.437 213.092 104.651 210.974 103.919 208.832C101.098 200.58 99.5812 193.346 100.22 187.035C100.544 183.832 101.445 180.602 103.42 177.383C103.432 177.46 103.443 177.537 103.455 177.614Z" fill="url(#paint2_linear_2399_812)" fill-opacity="0.5"/>
<path d="M171.85 180.221L143.553 195.171C143.553 195.171 130.399 203.606 128.086 164.526C126.508 151.938 128.563 130.319 139.98 112.733C162.112 79.2801 189.119 100.907 189.119 100.907L171.85 180.221Z" fill="url(#paint3_linear_2399_812)" fill-opacity="0.4"/>
</g>
<defs>
<linearGradient id="paint0_linear_2399_812" x1="218.266" y1="218.148" x2="107.764" y2="105.584" gradientUnits="userSpaceOnUse">
<stop stop-color="#FFF930"/>
<stop offset="1" stop-color="#FFD21F"/>
</linearGradient>
<linearGradient id="paint1_linear_2399_812" x1="42.5917" y1="288.303" x2="341.976" y2="34.9355" gradientUnits="userSpaceOnUse">
<stop stop-color="white"/>
<stop offset="1" stop-color="white"/>
</linearGradient>
<linearGradient id="paint2_linear_2399_812" x1="74.3761" y1="212.408" x2="123.125" y2="164.552" gradientUnits="userSpaceOnUse">
<stop stop-color="white" stop-opacity="0"/>
<stop offset="1" stop-color="#ADB0F8"/>
</linearGradient>
<linearGradient id="paint3_linear_2399_812" x1="193.969" y1="148.927" x2="127.06" y2="155.685" gradientUnits="userSpaceOnUse">
<stop offset="0.338446" stop-color="white" stop-opacity="0"/>
<stop offset="1" stop-color="#EAEBFD"/>
</linearGradient>
</defs>
</svg>
