<svg width="1034" height="569" viewBox="0 0 1034 569" fill="none" xmlns="http://www.w3.org/2000/svg">
<mask id="mask0_2399_1219" style="mask-type:alpha" maskUnits="userSpaceOnUse" x="7" y="10" width="1024" height="547">
<path fill-rule="evenodd" clip-rule="evenodd" d="M517.128 184.264C510.807 170.022 503.02 156.636 493.731 144.503C533.042 118.125 576.75 102.361 621.506 103.165C706.966 104.698 759.082 139.219 797.334 192.264C820.661 224.613 839.135 264.26 855.542 309.553L773.188 239.431C754.462 223.486 727.028 226.639 711.912 246.473C696.796 266.307 699.723 295.312 718.449 311.256L910.382 474.682C921.654 484.28 936.711 487.317 950.557 482.786C967.157 477.354 978.776 462.743 982.989 448.078L1028.9 193.537C1035.9 169.174 1022.91 143.463 999.884 136.11C976.859 128.757 952.519 142.546 945.52 166.91L938.022 279.405C919.338 227.425 896.75 178 866.672 136.29C812.766 61.5372 736.019 13.0464 623.159 11.0208C545.46 9.62632 475.034 41.6096 417.104 89.043C406.069 85.3025 394.248 82.5982 381.629 81.071C328.613 74.6549 285.942 89.3869 252.455 116.881C220.573 143.058 199.555 178.733 184.301 209.866C176.862 225.048 170.288 240.252 164.531 253.564L163.866 255.103C162.51 258.238 161.209 261.24 159.953 264.117C158.934 241.548 155.993 212.905 144.262 184.573C131.196 153.021 108.368 124.49 71.4476 103.654C50.234 91.6821 23.8248 100.182 12.4611 122.639C1.09735 145.095 9.08226 173.005 30.2959 184.977C49.9132 196.047 59.1547 208.967 64.4191 221.68C70.242 235.742 72.3162 252.264 73.0472 272.253C73.2265 277.157 73.3233 282.03 73.4162 287.128L73.4402 288.451C73.5229 293.022 73.6108 297.885 73.7669 302.577C74.0952 312.446 74.7814 324.668 77.3598 336.403C79.9517 348.198 85.4028 364.047 98.5036 376.826C112.406 390.387 129.443 395.246 145.346 395.531C168.017 395.938 185.613 385.046 197.83 372.769C209.262 361.279 217.761 346.925 224.257 334.354C230.925 321.449 237.242 306.853 243.107 293.294L243.471 292.452C249.44 278.651 255.231 265.261 261.663 252.133C274.988 224.938 288.95 203.477 305.815 189.63C314.374 182.603 324.375 176.944 336.913 173.984C322.533 193.457 309.829 213.594 298.992 233.74C268.272 290.845 249.12 353.897 250.908 410.44C252.765 469.13 278.364 525.335 339.16 549.013C397.053 571.56 446.473 542.038 477.826 501.951C508.562 462.652 528.312 407.256 535.933 352.167C543.565 296.987 539.923 235.623 517.128 184.264ZM369.424 462.527C380.381 466.795 393.42 465.414 410.715 443.301C428.626 420.4 443.714 382.297 449.701 339.008C455.677 295.81 451.698 253.916 438.223 223.556C435.018 216.335 431.293 209.736 426.955 203.845C406.826 226.779 389.152 252.358 374.721 279.185C348.988 327.022 336.93 373.074 338.009 407.174C339.02 439.127 350.365 455.105 369.424 462.527ZM162.442 316.123C162.442 316.123 162.426 316.059 162.388 315.947C162.421 316.069 162.442 316.123 162.442 316.123Z" fill="url(#paint0_linear_2399_1219)"/>
</mask>
<g mask="url(#mask0_2399_1219)">
<path fill-rule="evenodd" clip-rule="evenodd" d="M517.128 184.264C510.807 170.022 503.02 156.636 493.731 144.503C533.042 118.125 576.75 102.361 621.506 103.165C706.966 104.698 759.082 139.219 797.334 192.264C820.661 224.613 839.135 264.26 855.542 309.553L773.188 239.431C754.462 223.486 727.028 226.639 711.912 246.473C696.796 266.307 699.723 295.312 718.449 311.256L910.382 474.682C921.654 484.28 936.711 487.317 950.557 482.786C967.157 477.354 978.776 462.743 982.989 448.078L1028.9 193.537C1035.9 169.174 1022.91 143.463 999.884 136.11C976.859 128.757 952.519 142.546 945.52 166.91L938.022 279.405C919.338 227.425 896.75 178 866.672 136.29C812.766 61.5372 736.019 13.0464 623.159 11.0208C545.46 9.62632 475.034 41.6096 417.104 89.043C406.069 85.3025 394.248 82.5982 381.629 81.071C328.613 74.6549 285.942 89.3869 252.455 116.881C220.573 143.058 199.555 178.733 184.301 209.866C176.862 225.048 170.288 240.252 164.531 253.564L163.866 255.103C162.51 258.238 161.209 261.24 159.953 264.117C158.934 241.548 155.993 212.905 144.262 184.573C131.196 153.021 108.368 124.49 71.4476 103.654C50.234 91.6821 23.8248 100.182 12.4611 122.639C1.09735 145.095 9.08226 173.005 30.2959 184.977C49.9132 196.047 59.1547 208.967 64.4191 221.68C70.242 235.742 72.3162 252.264 73.0472 272.253C73.2265 277.157 73.3233 282.03 73.4162 287.128L73.4402 288.451C73.5229 293.022 73.6108 297.885 73.7669 302.577C74.0952 312.446 74.7814 324.668 77.3598 336.403C79.9517 348.198 85.4028 364.047 98.5036 376.826C112.406 390.387 129.443 395.246 145.346 395.531C168.017 395.938 185.613 385.046 197.83 372.769C209.262 361.279 217.761 346.925 224.257 334.354C230.925 321.449 237.242 306.853 243.107 293.294L243.471 292.452C249.44 278.651 255.231 265.261 261.663 252.133C274.988 224.938 288.95 203.477 305.815 189.63C314.374 182.603 324.375 176.944 336.913 173.984C322.533 193.457 309.829 213.594 298.992 233.74C268.272 290.845 249.12 353.897 250.908 410.44C252.765 469.13 278.364 525.335 339.16 549.013C397.053 571.56 446.473 542.038 477.826 501.951C508.562 462.652 528.312 407.256 535.933 352.167C543.565 296.987 539.923 235.623 517.128 184.264ZM369.424 462.527C380.381 466.795 393.42 465.414 410.715 443.301C428.626 420.4 443.714 382.297 449.701 339.008C455.677 295.81 451.698 253.916 438.223 223.556C435.018 216.335 431.293 209.736 426.955 203.845C406.826 226.779 389.152 252.358 374.721 279.185C348.988 327.022 336.93 373.074 338.009 407.174C339.02 439.127 350.365 455.105 369.424 462.527ZM162.442 316.123C162.442 316.123 162.426 316.059 162.388 315.947C162.421 316.069 162.442 316.123 162.442 316.123Z" fill="url(#paint1_linear_2399_1219)"/>
<path fill-rule="evenodd" clip-rule="evenodd" d="M336.433 174.633C336.655 174.344 336.876 174.057 337.095 173.773C339.264 170.967 341.309 168.31 343.26 165.776C365.434 136.962 375.397 124.016 416.967 88.9958C405.971 85.2791 394.195 82.5907 381.628 81.0698C328.612 74.6537 285.941 89.3856 252.454 116.88C220.572 143.056 199.554 178.732 184.3 209.865C183.516 211.465 182.741 213.066 181.976 214.665L251.716 273.558C254.931 266.325 258.204 259.19 261.662 252.132C274.987 224.937 288.949 203.476 305.814 189.629C314.373 182.602 324.374 176.943 336.912 173.983C336.752 174.199 336.593 174.416 336.433 174.633Z" fill="url(#paint2_linear_2399_1219)" fill-opacity="0.5"/>
<path d="M493.323 351.069L389.453 317.273C389.453 317.273 337.559 305.195 427.024 203.874C453.856 169.168 511.308 121.406 581.299 106.788C715.428 80.0074 727.316 200.046 727.316 200.046L493.323 351.069Z" fill="url(#paint3_linear_2399_1219)" fill-opacity="0.4"/>
</g>
<defs>
<linearGradient id="paint0_linear_2399_1219" x1="511.918" y1="559.223" x2="521.789" y2="9.20148" gradientUnits="userSpaceOnUse">
<stop stop-color="#FFF930"/>
<stop offset="1" stop-color="#FFD21F"/>
</linearGradient>
<linearGradient id="paint1_linear_2399_1219" x1="-77.8608" y1="293.998" x2="1252.89" y2="414.16" gradientUnits="userSpaceOnUse">
<stop stop-color="white"/>
<stop offset="1" stop-color="white"/>
</linearGradient>
<linearGradient id="paint2_linear_2399_1219" x1="182.465" y1="187.422" x2="415.125" y2="191.597" gradientUnits="userSpaceOnUse">
<stop stop-color="white" stop-opacity="0"/>
<stop offset="1" stop-color="#ADB0F8"/>
</linearGradient>
<linearGradient id="paint3_linear_2399_1219" x1="622.174" y1="329.538" x2="442.717" y2="183.827" gradientUnits="userSpaceOnUse">
<stop offset="0.338446" stop-color="white" stop-opacity="0"/>
<stop offset="1" stop-color="#EAEBFD"/>
</linearGradient>
</defs>
</svg>
