<svg width="757" height="170" viewBox="0 0 757 170" fill="none" xmlns="http://www.w3.org/2000/svg">
<path d="M87.9995 49.9902H95.7995V130.32H111.39V37.7212H87.9595C64.5293 37.7212 52.2593 49.9902 52.2593 67.8422C52.2593 82.3422 58.9892 90.1502 71.2593 99.0802L50.0693 130.32H67.9194L90.2295 95.7302L82.4195 90.1502C72.3794 83.4612 67.9194 77.8812 67.9194 66.7302C67.9194 56.6822 74.6094 49.9902 87.9995 49.9902Z" fill="#F4F7FA"/>
<path fill-rule="evenodd" clip-rule="evenodd" d="M85 170C107.543 170 129.163 161.045 145.104 145.104C161.045 129.164 170 107.543 170 85C170 62.457 161.045 40.836 145.104 24.896C129.163 8.955 107.543 0 85 0C62.4565 0 40.8364 8.955 24.896 24.896C8.9556 40.836 0 62.457 0 85C0 107.543 8.9556 129.164 24.896 145.104C40.8364 161.045 62.4565 170 85 170ZM85 154.881C103.544 154.881 121.328 147.514 134.441 134.4C147.553 121.289 154.92 103.504 154.92 84.959C154.917 66.416 147.55 48.635 134.438 35.521C121.326 22.41 103.543 15.043 85 15.041C66.4551 15.039 48.6699 22.406 35.5557 35.518C22.4414 48.631 15.0723 66.416 15.0698 84.959C15.0698 94.143 16.8784 103.236 20.3931 111.719C23.9077 120.203 29.0591 127.912 35.5527 134.404C42.0464 140.896 49.7554 146.047 58.2397 149.561C66.7241 153.074 75.8169 154.881 85 154.881Z" fill="#F4F7FA"/>
<path fill-rule="evenodd" clip-rule="evenodd" d="M207.85 30.1602H236.15C249.116 30.1602 259.14 33.2342 266.22 39.3812C273.3 45.5272 276.837 54.2171 276.83 65.4511C276.83 77.6501 273.23 86.3201 265.83 92.2011C258.43 98.0801 248.52 101.029 236.08 101.029H225.8V141.66H207.85V30.1602ZM236.29 86.8502C243.277 86.8502 248.79 85.1072 252.83 81.6212C256.87 78.1332 258.87 72.6881 258.83 65.2791C258.83 58.0801 256.95 52.7912 253.19 49.4102C249.43 46.0292 244 44.3381 236.9 44.3301H225.8V86.8502H236.29Z" fill="#F4F7FA"/>
<path fill-rule="evenodd" clip-rule="evenodd" d="M347.69 136.611C344.504 138.752 341.002 140.379 337.31 141.43C332.285 142.941 327.056 143.656 321.81 143.551C309.81 143.551 300.573 140.055 294.1 133.061C287.627 126.068 284.39 115.471 284.39 101.271C284.268 93.7808 285.491 86.3298 288 79.2708C290.115 73.2208 293.97 67.9298 299.08 64.0608C304.06 60.3808 310.353 58.5408 317.96 58.5408C323.614 58.4038 329.206 59.7478 334.18 62.4408C338.78 65.0408 342.34 69.1878 344.86 74.8808C347.38 80.5698 348.64 88.7708 348.64 97.7208V107.721H302.34C302.66 115.09 304.57 120.371 307.68 123.951C310.79 127.531 315.74 129.451 323.13 129.451C327.803 129.391 332.434 128.549 336.83 126.961C340.648 125.732 344.297 124.029 347.69 121.891V136.611ZM318.15 72.6798C308.15 72.6798 302.78 80.1208 302.34 94.4098H331.63V92.2908C331.63 86.8298 330.79 81.9508 328.85 78.2398C326.91 74.5308 323.35 72.6798 318.15 72.6798Z" fill="#F4F7FA"/>
<path d="M380.76 101.029L410.06 141.66H430.83L399.65 98.1889L428 60.3999H409.11L380.76 99.1409V60.3999H363.76V141.66H380.76V101.029Z" fill="#F4F7FA"/>
<path d="M436.51 126.531C437.514 127.105 438.643 127.428 439.8 127.471C443.13 127.471 445.34 125.541 446.36 122.211C447.38 118.881 448.05 112.711 448.36 103.701L449.72 60.3911H502.63V141.65H485.63V74.5311H465.26L464.13 104.48C463.99 111.838 463.184 119.168 461.72 126.381C460.434 132.066 458.34 136.25 455.44 138.93C452.54 141.621 448.44 142.57 443.11 142.57C440.871 142.559 438.644 142.242 436.49 141.631L436.51 126.531Z" fill="#F4F7FA"/>
<path fill-rule="evenodd" clip-rule="evenodd" d="M578.24 121.619V85.9078C578.24 75.5288 576.29 68.8179 571.47 64.6479C566.65 60.4789 559.2 58.4789 549.33 58.4789C543.76 58.3789 538.212 59.1988 532.91 60.9078C528.936 62.2008 525.113 63.9199 521.51 66.0389V81.1479C524.915 78.7049 528.68 76.8048 532.67 75.5198C537.255 73.7518 542.108 72.7809 547.02 72.6479C551.85 72.6479 555.47 73.8979 557.78 75.8499C560.09 77.7989 561.24 81.1478 561.24 85.9078V90.5999H557.37C542.99 90.5999 532.48 92.8689 525.82 97.4179C519.16 101.969 515.88 108.639 515.88 116.76C515.873 124.979 518.073 131.336 522.48 135.828C526.887 140.322 532.683 142.568 539.87 142.568C545.77 142.568 550.18 141.648 553.07 139.809C554.859 138.693 556.557 137.439 558.148 136.062L558.413 135.832L558.75 135.531L559.038 135.268C559.241 135.082 559.442 134.895 559.641 134.703C559.86 134.494 560.076 134.283 560.29 134.068H561.24C561.406 135.646 561.699 137.207 562.117 138.734C562.203 139.049 562.294 139.363 562.391 139.676C562.483 139.973 562.58 140.268 562.681 140.561C562.804 140.916 562.933 141.27 563.07 141.619H579.19C578.54 134.949 578.24 128.229 578.24 121.619ZM561.24 103.908V120.869C560.447 121.951 559.576 122.971 558.634 123.92C558.272 124.285 557.899 124.641 557.517 124.984C556.894 125.545 556.244 126.078 555.57 126.578C553.012 128.465 549.907 129.459 546.73 129.408C542.34 129.408 539.21 128.279 537.06 125.998C534.848 123.561 533.69 120.348 533.84 117.059C533.84 112.299 535.7 108.908 539.4 106.908C543.1 104.908 548.95 103.908 557.69 103.908H561.24Z" fill="#F4F7FA"/>
<path fill-rule="evenodd" clip-rule="evenodd" d="M755.88 85.9102V121.621C755.88 128.23 756.18 134.951 756.83 141.621H740.7C739.761 139.195 739.146 136.656 738.87 134.07H737.93C735.75 136.252 733.327 138.178 730.71 139.811C727.81 141.65 723.41 142.57 717.51 142.57C710.316 142.57 704.52 140.324 700.12 135.83C695.72 131.338 693.52 124.98 693.52 116.76C693.52 108.641 696.8 101.971 703.45 97.4202C710.1 92.8712 720.63 90.6002 735.01 90.6002H738.87L738.919 85.9102C738.869 81.1502 737.77 77.8012 735.46 75.8502C733.15 73.9002 729.53 72.6502 724.7 72.6502C719.785 72.7852 714.929 73.7541 710.34 75.5201C706.354 76.8091 702.593 78.7072 699.19 81.1502V66.0411C702.793 63.9221 706.615 62.2012 710.59 60.9102C715.892 59.2192 721.436 58.4142 727 58.5312C736.87 58.5312 744.32 60.5311 749.13 64.7011C753.94 68.8711 755.88 75.5312 755.88 85.9102ZM738.88 120.91V103.91H735.34C726.6 103.91 720.749 104.91 717.039 106.91C713.329 108.91 711.479 112.301 711.479 117.061C711.333 120.35 712.495 123.564 714.71 126C716.86 128.281 719.99 129.41 724.38 129.41C727.553 129.459 730.655 128.465 733.21 126.58C735.374 124.973 737.282 123.049 738.87 120.871L738.88 120.91Z" fill="#F4F7FA"/>
<path d="M663.28 77.3999V141.66H680.29V60.3999H654.78L636.83 117.09L620.76 60.3999H594.31V141.66H609.43V76.4609L628.32 141.66H642.5L663.28 77.3999Z" fill="#F4F7FA"/>
</svg>
